<?xml version="1.0" standalone="no"?>
<!DOCTYPE svg PUBLIC "-//W3C//DTD SVG 20010904//EN"
 "http://www.w3.org/TR/2001/REC-SVG-20010904/DTD/svg10.dtd">
<svg version="1.0" xmlns="http://www.w3.org/2000/svg"
 width="512.000000pt" height="512.000000pt" viewBox="0 0 512.000000 512.000000"
 preserveAspectRatio="xMidYMid meet">
<metadata>
Created by potrace 1.14, written by Peter Selinger 2001-2017
</metadata>
<g transform="translate(0.000000,512.000000) scale(0.100000,-0.100000)"
fill="#000000" stroke="none">
<path d="M145 5113 c-27 -7 -66 -33 -93 -63 -55 -60 -52 105 -52 -2484 0
-1634 3 -2403 11 -2429 12 -45 78 -113 122 -126 19 -5 1005 -9 2432 -10 2393
0 2400 0 2442 20 46 23 83 66 101 118 9 26 12 625 12 2430 -1 2295 -2 2398
-19 2432 -21 42 -43 67 -86 95 -30 19 -69 19 -2440 20 -1325 1 -2419 0 -2430
-3z"/>
</g>
</svg>
